<?xml version="1.0" encoding="utf-8"?>
<!-- Generator: Adobe Illustrator 25.4.1, SVG Export Plug-In . SVG Version: 6.00 Build 0)  -->
<svg version="1.1" id="Layer_1" focusable="false" xmlns="http://www.w3.org/2000/svg" xmlns:xlink="http://www.w3.org/1999/xlink"
	 x="0px" y="0px" viewBox="0 0 192 512" style="enable-background:new 0 0 192 512;" xml:space="preserve">
<style type="text/css">
	.st0{fill:none;}
</style>
<g>
	<circle class="st0" cx="49" cy="58.4" r="5.7"/>
	<path class="st0" d="M124.3,67.8c2.4,0,4.4-2,4.4-4.4c0-2.4-2-4.4-4.4-4.4c-2.4,0-4.4,2-4.4,4.4C120,65.8,121.9,67.8,124.3,67.8z"
		/>
	<path class="st0" d="M142.3,93.5c0,2.4,2,4.4,4.4,4.4c2.4,0,4.4-2,4.4-4.4c0-2.4-2-4.4-4.4-4.4C144.3,89.1,142.3,91.1,142.3,93.5z"
		/>
	<path class="st0" d="M55.9,94.8c0-2-1.7-3.7-3.7-3.7s-3.7,1.7-3.7,3.7s1.7,3.7,3.7,3.7S55.9,96.9,55.9,94.8z"/>
	<path class="st0" d="M154.5,87.6c1.9,0,3.5-1.6,3.5-3.5c0-1.9-1.6-3.5-3.5-3.5c-1.9,0-3.5,1.6-3.5,3.5
		C151,86,152.6,87.6,154.5,87.6z"/>
	<path class="st0" d="M83,56.5c2.4,0,4.4-2,4.4-4.4c0-2.4-2-4.4-4.4-4.4s-4.4,2-4.4,4.4C78.6,54.6,80.6,56.5,83,56.5z"/>
	<path class="st0" d="M88.2,17.4c1.4,0,2.6-1.2,2.6-2.6s-1.2-2.6-2.6-2.6s-2.6,1.2-2.6,2.6S86.8,17.4,88.2,17.4z"/>
	<circle class="st0" cx="101.9" cy="29" r="3.5"/>
	<path class="st0" d="M114.7,47.7c3.6,0,6.5-2.9,6.5-6.5s-2.9-6.5-6.5-6.5s-6.5,2.9-6.5,6.5C108.2,44.8,111.1,47.7,114.7,47.7z"/>
	<path class="st0" d="M39.1,126.7c-1.4,0-2.6,1.2-2.6,2.6s1.2,2.6,2.6,2.6s2.6-1.2,2.6-2.6S40.6,126.7,39.1,126.7z"/>
	<circle class="st0" cx="16.6" cy="73.6" r="2.6"/>
	<circle class="st0" cx="154.5" cy="52.7" r="2.6"/>
	<circle class="st0" cx="33.1" cy="61.9" r="3.5"/>
	<circle class="st0" cx="145.3" cy="122.5" r="3"/>
	<path class="st0" d="M146.7,140c-1.4,0-2.6,1.2-2.6,2.6s1.2,2.6,2.6,2.6s2.6-1.2,2.6-2.6S148.1,140,146.7,140z"/>
	<path class="st0" d="M130.8,133.9c-2.4,0-4.4,2-4.4,4.4c0,2.4,2,4.4,4.4,4.4c2.4,0,4.4-2,4.4-4.4
		C135.1,135.8,133.2,133.9,130.8,133.9z"/>
	<path class="st0" d="M135.1,208.9c-2.8,0-5.2,2.1-5.5,4.9c0.3,1.2,0.5,2.3,0.7,3.5c1,1.6,2.7,2.7,4.8,2.7c3.1,0,5.5-2.5,5.5-5.5
		C140.7,211.4,138.2,208.9,135.1,208.9z"/>
	<circle class="st0" cx="93" cy="229.8" r="5.5"/>
	<ellipse transform="matrix(0.9732 -0.2298 0.2298 0.9732 -66.9207 23.3158)" class="st0" cx="66.7" cy="299" rx="6.2" ry="6.2"/>
	<circle class="st0" cx="71" cy="272.3" r="11.1"/>
	<circle class="st0" cx="82.2" cy="247.8" r="8.5"/>
	
		<ellipse transform="matrix(0.9871 -0.1602 0.1602 0.9871 -35.1872 26.7195)" class="st0" cx="148.1" cy="231.6" rx="7.5" ry="7.5"/>
	<circle class="st0" cx="162.1" cy="251.6" r="10.5"/>
	
		<ellipse transform="matrix(0.7071 -0.7071 0.7071 0.7071 -143.8405 202.9426)" class="st0" cx="173.1" cy="275.1" rx="6.6" ry="6.6"/>
	
		<ellipse transform="matrix(0.8112 -0.5847 0.5847 0.8112 -33.5254 73.6808)" class="st0" cx="97.4" cy="88.8" rx="10.7" ry="10.7"/>
	<circle class="st0" cx="64.3" cy="137.1" r="3.5"/>
	<ellipse transform="matrix(0.9732 -0.2298 0.2298 0.9732 -26.6794 17.6443)" class="st0" cx="62.4" cy="123.4" rx="6" ry="6"/>
	<path class="st0" d="M99.1,114.9l18.2,29.9l-4.4-23.5l30.1,11.8l-15.2-13.4c0-0.3,0-0.6,0-0.9l25.2-2l-25-5.4l-0.1-0.5l-1.1-8.3
		l20.9,1.1l-23.1-8.6c-0.2-0.6-0.3-1.2-0.5-1.7l22.3-9.9h-26.3c0,0,0,0,0,0l22.6-18.9l-28.9,10.3V54l-11.1,15
		c-0.4-0.1-0.8-0.2-1.3-0.3L96,32.4L86.3,67c-0.3,0-0.7,0-1,0L72.5,54l3.2,13.9c-0.3,0.1-0.7,0.1-1,0.2l-3.7-1.8L58,60.1l5.5,10.4
		c-2.5,0.7-4.6,1.3-6.2,1.9l-12.4-2.5l12.5,8.6c0.5,0.7,1.1,1.4,1.8,2.1L48,89.1l17.4-1.5c0.5,0.5,0.9,1,1.4,1.5L53.9,111l-1.1,1.9
		l2.2-1.6L74.9,97c0.5,0.5,1,1,1.6,1.4l-2.7,15.4l-3.5,20l11.1-22.2l3.2-6.4c0.5,0.4,1,0.7,1.4,1.1c0.2,0.2,0.5,0.4,0.7,0.5
		l3.3,24.4l3.1-10.9l2.2-7.7C96.6,113.4,97.8,114.2,99.1,114.9z M79.7,82.7c-1.6,3.1-5.4,4.3-8.5,2.7c-3.1-1.6-9.2-6.3-7.6-9.4
		c1.6-3.1,10.4-3.4,13.4-1.8C80.1,75.8,81.3,79.6,79.7,82.7z M119.7,105.3c1.9,2.9,5,10,2,11.9c-2.9,1.9-10.7-2.1-12.6-5
		s-1.1-6.8,1.8-8.7C113.9,101.5,117.8,102.3,119.7,105.3z M82.2,88.8c0-8.4,6.8-15.2,15.2-15.2c8.4,0,15.2,6.8,15.2,15.2
		c0,8.4-6.8,15.2-15.2,15.2C89,104,82.2,97.2,82.2,88.8z"/>
	<path d="M109.2,112.2c1.9,2.9,9.7,6.9,12.6,5c2.9-1.9-0.1-9-2-11.9c-1.9-2.9-5.8-3.7-8.7-1.8C108.1,105.4,107.3,109.3,109.2,112.2z
		"/>
	<path d="M77,74.2c-3.1-1.6-11.8-1.3-13.4,1.8c-1.6,3.1,4.5,7.8,7.6,9.4c3.1,1.6,6.9,0.4,8.5-2.7C81.3,79.6,80.1,75.8,77,74.2z"/>
	<path d="M112.5,88.8c0-8.4-6.8-15.2-15.2-15.2c-8.4,0-15.2,6.8-15.2,15.2c0,8.4,6.8,15.2,15.2,15.2
		C105.7,104,112.5,97.2,112.5,88.8z M86.6,88.8c0-5.9,4.8-10.7,10.7-10.7c5.9,0,10.7,4.8,10.7,10.7c0,5.9-4.8,10.7-10.7,10.7
		C91.4,99.5,86.6,94.7,86.6,88.8z"/>
	<path d="M189.4,288.9c-3.3-7.2-6.2-17-6.9-29.6c-1.3-24.6-41.5-51-56.2-59.8c-2.7-10.7-6-21.8-10.1-33.3c-2.8-8-5.3-14.4-7.5-19.6
		c2.6,3.2,5.2,6,7.5,8c13.9,11.9,34.1,11.2,45.1-1.7c11.1-12.9,8.8-33-5.1-44.9c-1.2-1.1-2.7-2.2-4.3-3.3c6.3-2.4,12-5.2,15.8-8
		c15-10.5,19.2-30.3,9.4-44.2s-29.8-16.6-44.8-6.1c-2.6,1.8-5.4,4.3-8.4,7.3c1.6-5.9,2.5-11.3,2.6-15.6c0.6-18.3-12.7-33.5-29.7-34
		C80.2,3.7,66,18.1,65.4,36.4c-0.1,4.9,0.6,11.4,2.2,18.2c-2.2-2.7-4.4-5.1-6.4-6.9c-13.6-12.2-33.8-11.9-45.2,0.8
		c-11.3,12.6-9.5,32.8,4.2,45c5,4.4,13.3,9.5,22.4,13.4c-1,0.8-1.9,1.5-2.8,2.3c-13.7,12.2-15.6,32.3-4.3,45
		c11.3,12.7,31.5,13.1,45.2,0.9c4.2-3.8,9.2-10,13.6-17c-0.5,4.9-0.5,11.3-0.3,17.2c0.1,2.3,0.8,4.5,1.9,6.7
		c1.5-1.5,3.6-2.4,5.9-2.4c4.7,0,8.6,3.8,8.6,8.6c0,3.5-2.1,6.5-5.1,7.8c0.7,1.1,1.4,2.3,2,3.4c0.3,0,0.5,0,0.8,0
		c4.7,0,8.6,3.8,8.6,8.6c0,3.3-1.9,6.2-4.7,7.6c0.2,0.9,0.4,1.8,0.6,2.7c-14.6,11-72.1,57.3-59.9,95.5c4.5,14.2,8.5,28.2,11.7,40.6
		c1.6,6.1,10.5,5.1,10.8-1.2c0.9-19.1,3-38.2,8.1-44.1c9-10.4,24.6-64.5,30.4-85.2c0.4,2,0.7,4.1,1.1,6.3c3.7,0.9,6.4,4.3,6.4,8.3
		c0,3.2-1.8,6.1-4.5,7.5c0.2,1.6,0.3,3.3,0.4,5c4.5,0.2,8.1,4,8.1,8.5c0,4.3-3.2,7.9-7.3,8.5c0,1.9,0,3.9,0,5.8
		c4.1,0.6,7.3,4.2,7.3,8.4c0,4.5-3.5,8.2-8,8.5c-0.2,2-0.3,3.9-0.5,5.9c3.8,0.9,6.6,4.3,6.6,8.3c0,4.7-3.8,8.6-8.6,8.6
		c-0.2,0-0.4,0-0.5,0c-0.4,2-0.8,4-1.3,6.1c3.5,1.1,6,4.3,6,8.2c0,4.7-3.8,8.6-8.6,8.6c-0.7,0-1.4-0.1-2-0.3
		c-0.7,1.9-1.3,3.9-2.1,5.8c3.5,1.7,6,5.4,6,9.6c0,5.9-4.8,10.7-10.7,10.7c-1.6,0-3.1-0.4-4.5-1c-1,1.7-2,3.4-3.1,5
		c2.1,2,3.3,4.9,3.3,8c0,6.2-5,11.2-11.2,11.2c-2.3,0-4.4-0.7-6.1-1.8c-0.9,0.9-1.7,1.8-2.6,2.7c2.1,2.2,3.5,5.2,3.5,8.5
		c0,6.7-5.5,12.2-12.2,12.2c-2.8,0-5.4-1-7.5-2.6c-0.8,1.1-1.6,2.2-2.5,3.4c3.4,2.2,5.7,6.1,5.7,10.5c0,6.9-5.6,12.5-12.5,12.5
		c-2.2,0-4.3-0.6-6.2-1.6c-0.7,1.4-1.4,2.8-2,4.2c6.6,1.5,11.4,7.4,11.4,14.4c0,8.2-6.6,14.8-14.8,14.8c-2.1,0-4-0.4-5.8-1.2
		c-0.3,1.7-0.5,3.3-0.7,5c4.5,0.2,8.1,4,8.1,8.5c0,4.5-3.5,8.2-7.9,8.5c0,0,0,0,0,0h52.2c0,0-11.3-45.6,28.7-112.6
		c17.2-28.8,24.7-62.3,21.2-95.6c-1.1-10.1-2.6-21.3-5-33.2c6,15,13,32.8,16,41.6c3.4,10.3,21.7,22.9,35.5,31.2
		C186.7,297.1,191.2,293,189.4,288.9z M16.6,76.2c-1.4,0-2.6-1.2-2.6-2.6s1.2-2.6,2.6-2.6s2.6,1.2,2.6,2.6S18,76.2,16.6,76.2z
		 M33.1,65.3c-1.9,0-3.5-1.6-3.5-3.5s1.6-3.5,3.5-3.5s3.5,1.6,3.5,3.5S35,65.3,33.1,65.3z M39.1,131.9c-1.4,0-2.6-1.2-2.6-2.6
		s1.2-2.6,2.6-2.6s2.6,1.2,2.6,2.6S40.6,131.9,39.1,131.9z M130.8,142.6c-2.4,0-4.4-2-4.4-4.4c0-2.4,2-4.4,4.4-4.4
		c2.4,0,4.4,2,4.4,4.4C135.1,140.6,133.2,142.6,130.8,142.6z M146.7,145.2c-1.4,0-2.6-1.2-2.6-2.6s1.2-2.6,2.6-2.6s2.6,1.2,2.6,2.6
		S148.1,145.2,146.7,145.2z M142.3,122.5c0-1.7,1.4-3,3-3c1.7,0,3,1.4,3,3c0,1.7-1.4,3-3,3C143.7,125.5,142.3,124.2,142.3,122.5z
		 M154.5,50.1c1.4,0,2.6,1.2,2.6,2.6s-1.2,2.6-2.6,2.6s-2.6-1.2-2.6-2.6S153.1,50.1,154.5,50.1z M154.5,80.6c1.9,0,3.5,1.6,3.5,3.5
		c0,1.9-1.6,3.5-3.5,3.5c-1.9,0-3.5-1.6-3.5-3.5C151,82.2,152.6,80.6,154.5,80.6z M151,93.5c0,2.4-2,4.4-4.4,4.4
		c-2.4,0-4.4-2-4.4-4.4c0-2.4,2-4.4,4.4-4.4C149.1,89.1,151,91.1,151,93.5z M124.3,59c2.4,0,4.4,2,4.4,4.4c0,2.4-2,4.4-4.4,4.4
		c-2.4,0-4.4-2-4.4-4.4C120,61,121.9,59,124.3,59z M114.7,34.8c3.6,0,6.5,2.9,6.5,6.5s-2.9,6.5-6.5,6.5s-6.5-2.9-6.5-6.5
		C108.2,37.7,111.1,34.8,114.7,34.8z M101.9,25.5c1.9,0,3.5,1.6,3.5,3.5c0,1.9-1.6,3.5-3.5,3.5c-1.9,0-3.5-1.6-3.5-3.5
		C98.4,27,100,25.5,101.9,25.5z M88.2,12.2c1.4,0,2.6,1.2,2.6,2.6s-1.2,2.6-2.6,2.6s-2.6-1.2-2.6-2.6S86.8,12.2,88.2,12.2z M83,47.8
		c2.4,0,4.4,2,4.4,4.4c0,2.4-2,4.4-4.4,4.4s-4.4-2-4.4-4.4C78.6,49.7,80.6,47.8,83,47.8z M49,52.7c3.1,0,5.7,2.5,5.7,5.7
		c0,3.1-2.5,5.7-5.7,5.7s-5.7-2.5-5.7-5.7C43.4,55.3,45.9,52.7,49,52.7z M48.4,94.8c0-2,1.7-3.7,3.7-3.7s3.7,1.7,3.7,3.7
		s-1.7,3.7-3.7,3.7S48.4,96.9,48.4,94.8z M64.3,140.6c-1.9,0-3.5-1.6-3.5-3.5c0-1.9,1.6-3.5,3.5-3.5c1.9,0,3.5,1.6,3.5,3.5
		C67.8,139,66.2,140.6,64.3,140.6z M62.4,129.3c-3.3,0-6-2.7-6-6c0-3.3,2.7-6,6-6c3.3,0,6,2.7,6,6C68.4,126.7,65.7,129.3,62.4,129.3
		z M90,131.3l-3.3-24.4c-0.2-0.2-0.5-0.4-0.7-0.5c-0.5-0.4-1-0.7-1.4-1.1l-3.2,6.4l-11.1,22.2l3.5-20l2.7-15.4
		c-0.5-0.5-1.1-1-1.6-1.4L55,111.4l-2.2,1.6l1.1-1.9l12.9-21.9c-0.5-0.5-0.9-1-1.4-1.5L48,89.1l11.2-8.6c-0.6-0.8-1.2-1.5-1.8-2.1
		l-12.5-8.6l12.4,2.5c1.6-0.5,3.7-1.2,6.2-1.9L58,60.1l12.9,6.2l3.7,1.8c0.3-0.1,0.7-0.1,1-0.2L72.5,54l12.8,13c0.3,0,0.7,0,1,0
		L96,32.4l5.4,36.2c0.4,0.1,0.8,0.2,1.3,0.3l11.1-15v20.8l28.9-10.3l-22.6,18.9c0,0,0,0,0,0h26.3l-22.3,9.9c0.2,0.6,0.3,1.2,0.5,1.7
		l23.1,8.6l-20.9-1.1l1.1,8.3l0.1,0.5l25,5.4l-25.2,2c0,0.3,0,0.6,0,0.9l15.2,13.4l-30.1-11.8l4.4,23.5l-18.2-29.9
		c-1.3-0.7-2.5-1.4-3.8-2.2l-2.2,7.7L90,131.3z M66.7,305.3c-3.4,0-6.2-2.8-6.2-6.2c0-3.4,2.8-6.2,6.2-6.2c3.4,0,6.2,2.8,6.2,6.2
		C72.9,302.5,70.1,305.3,66.7,305.3z M71,283.4c-6.1,0-11.1-5-11.1-11.1c0-6.1,5-11.1,11.1-11.1s11.1,5,11.1,11.1
		C82.1,278.4,77.1,283.4,71,283.4z M82.2,256.3c-4.7,0-8.5-3.8-8.5-8.5c0-4.7,3.8-8.5,8.5-8.5s8.5,3.8,8.5,8.5
		C90.7,252.5,86.9,256.3,82.2,256.3z M93,235.3c-3.1,0-5.5-2.5-5.5-5.5c0-3.1,2.5-5.5,5.5-5.5s5.5,2.5,5.5,5.5
		C98.5,232.9,96.1,235.3,93,235.3z M135.1,220c-2,0-3.8-1.1-4.8-2.7c-0.2-1.1-0.5-2.3-0.7-3.5c0.3-2.7,2.7-4.9,5.5-4.9
		c3.1,0,5.5,2.5,5.5,5.5C140.7,217.5,138.2,220,135.1,220z M140.7,231.6c0-4.1,3.3-7.5,7.5-7.5s7.5,3.3,7.5,7.5
		c0,4.1-3.3,7.5-7.5,7.5S140.7,235.7,140.7,231.6z M151.5,251.6c0-5.8,4.7-10.5,10.5-10.5c5.8,0,10.5,4.7,10.5,10.5
		s-4.7,10.5-10.5,10.5C156.2,262.1,151.5,257.4,151.5,251.6z M173.1,281.7c-3.6,0-6.6-2.9-6.6-6.6c0-3.6,2.9-6.6,6.6-6.6
		c3.6,0,6.6,2.9,6.6,6.6C179.6,278.7,176.7,281.7,173.1,281.7z"/>
</g>
</svg>
