<?xml version="1.0" encoding="utf-8"?>
<!-- Generator: Adobe Illustrator 25.4.1, SVG Export Plug-In . SVG Version: 6.00 Build 0)  -->
<svg version="1.1" id="Layer_1" focusable="false" xmlns="http://www.w3.org/2000/svg" xmlns:xlink="http://www.w3.org/1999/xlink"
	 x="0px" y="0px" viewBox="0 0 512 512" style="enable-background:new 0 0 512 512;" xml:space="preserve">
<style type="text/css">
	.st0{fill:#FFFFFF;}
	.st1{fill:none;}
</style>
<path d="M256,160c-41.1,0-76.2,26-89.9,62.3c0.8-0.2,1.6-0.4,2.4-0.4c4.7,0,8.5,3.8,8.5,8.5c0,4.7-3.8,8.5-8.5,8.5
	c-2.6,0-4.9-1.2-6.5-3c-1.4,6.4-2.1,13.1-2.1,19.9c0,28.5,12.5,54.2,32.4,71.8c1.4-2.9,4.3-5,7.8-5c4.7,0,8.5,3.8,8.5,8.5
	c0,2.6-1.1,4.8-2.9,6.4c14.6,9,31.8,14.2,50.2,14.2c52.9,0,96-43.1,96-96C352,203.1,308.9,160,256,160z M248.3,237
	c0-5.4,1.4-9.8,6.8-9.8s6.8,4.4,6.8,9.8l3,36.6c0,5.4-4.4,9.8-9.8,9.8s-9.8-4.4-9.8-9.8L248.3,237z M209.1,248.1
	c-12.7,0-23-10.3-23-23c0-12.7,10.3-23,23-23s23,10.3,23,23C232.1,237.8,221.8,248.1,209.1,248.1z M255.1,342.2
	c-12.7,0-23-10.3-23-23c0-12.7,10.3-23,23-23s23,10.3,23,23C278.1,331.8,267.8,342.2,255.1,342.2z M337.2,252.8
	c4.7,0,8.5,3.8,8.5,8.5c0,4.7-3.8,8.5-8.5,8.5s-8.5-3.8-8.5-8.5C328.6,256.6,332.5,252.8,337.2,252.8z M301.2,248.1
	c-12.7,0-23-10.3-23-23c0-12.7,10.3-23,23-23s23,10.3,23,23C324.2,237.8,313.9,248.1,301.2,248.1z"/>
<ellipse transform="matrix(0.3827 -0.9239 0.9239 0.3827 -78.7296 332.5905)" cx="209.5" cy="225.2" rx="17.9" ry="17.9"/>
<circle cx="301.2" cy="225.2" r="17.9"/>
<path class="st0" d="M69.9,426c-0.1-2.2,0.1-4.4,0.9-6.7"/>
<path class="st0" d="M87,385.8"/>
<ellipse transform="matrix(0.3827 -0.9239 0.9239 0.3827 -142.4456 644.5199)" class="st1" cx="411.1" cy="428.9" rx="8.5" ry="8.5"/>
<circle class="st1" cx="217.2" cy="124.9" r="8.5"/>
<ellipse transform="matrix(0.9732 -0.2298 0.2298 0.9732 -91.5905 36.1412)" class="st1" cx="109.4" cy="411.4" rx="8.5" ry="8.5"/>
<circle class="st1" cx="104.7" cy="281.5" r="13"/>
<circle class="st1" cx="256.3" cy="255.4" r="112.8"/>
<circle class="st1" cx="399.6" cy="357.8" r="15.7"/>
<ellipse transform="matrix(0.9732 -0.2298 0.2298 0.9732 -27.422 95.7032)" class="st1" cx="397.3" cy="165.6" rx="13.8" ry="13.8"/>
<path d="M502.4,240.5L502.4,240.5l-37.9-18.9c0.2,1.1,0.3,2.3,0.3,3.5c0,12.8-10.4,23.2-23.2,23.2c-12.8,0-23.2-10.4-23.2-23.2
	c0-8.8,4.9-16.5,12.2-20.4l-22.9-11.4l33.5-90.4c4.5-13.6-8.4-26.5-21.9-21.9l-100.4,23.5l-11.4-22.9c-4.2,4.1-9.9,6.7-16.3,6.7
	C278.4,88.2,268,77.8,268,65c0-11.6,8.6-21.3,19.8-22.9l-16.2-26.5c-6.4-12.8-24.6-12.8-31,0l-47.3,88.7L117,72.7
	c0.4,1.5,0.7,3,0.7,4.6c0,9-7.3,16.3-16.3,16.3s-16.3-7.3-16.3-16.3c0-6.2,3.4-11.6,8.5-14.3L60.7,50.8
	c-13.6-4.5-26.5,8.4-21.9,21.9l65.5,120.4l-37.8,21.2c2.9,1.4,4.8,4.3,4.8,7.7c0,4.7-3.8,8.5-8.5,8.5s-8.5-3.8-8.5-8.5
	c0-0.3,0-0.6,0-0.8l-34.7,19.4c-12.8,6.4-12.8,24.6,0,31l104.7,37.3l-37.3,77c4.6,4.2,7.5,10.3,7.5,17.1c0,12.8-10.4,23.2-23.2,23.2
	c-0.5,0-0.9,0-1.4,0c0.7,10.7,11.5,19,22.8,15.2l100.4-33.5l47.3,83.7c6.4,12.8,24.6,12.8,31,0l13.6-16.2c-0.6,0-1.2,0.1-1.8,0.1
	c-12.8,0-23.2-10.4-23.2-23.2c0-12.8,10.4-23.2,23.2-23.2c8.2,0,15.4,4.3,19.6,10.7l15.9-31.9l110.4,43.5
	c13.6,4.5,36.5,1.6,31.9-11.9l-53.5-120.4l58.7-29.3c-4.9-2.6-8.2-7.8-8.2-13.8c0-8.6,7-15.7,15.7-15.7c8.6,0,15.7,7,15.7,15.7
	c0,0.8-0.1,1.6-0.2,2.4l13.1-6.5C515.2,265.1,515.2,246.9,502.4,240.5z M99.2,169.5c-6.6,0-11.9-5.3-11.9-11.9s5.3-11.9,11.9-11.9
	s11.9,5.3,11.9,11.9S105.7,169.5,99.2,169.5z M104.7,294.5c-7.2,0-13-5.8-13-13s5.8-13,13-13s13,5.8,13,13S111.9,294.5,104.7,294.5z
	 M109.4,419.9c-4.7,0-8.5-3.8-8.5-8.5c0-4.7,3.8-8.5,8.5-8.5c4.7,0,8.5,3.8,8.5,8.5C118,416.1,114.1,419.9,109.4,419.9z
	 M217.2,116.4c4.7,0,8.5,3.8,8.5,8.5c0,4.7-3.8,8.5-8.5,8.5s-8.5-3.8-8.5-8.5C208.7,120.2,212.5,116.4,217.2,116.4z M336,335.1
	c-44,44-115.5,44-159.5,0c-44-44-44-115.5,0-159.5c44-44,115.5-44,159.5,0S380,291.2,336,335.1z M419.6,428.9c0,4.7-3.8,8.5-8.5,8.5
	s-8.5-3.8-8.5-8.5c0-4.7,3.8-8.5,8.5-8.5S419.6,424.1,419.6,428.9z M415.3,357.8c0,8.7-7,15.7-15.7,15.7c-8.7,0-15.7-7-15.7-15.7
	c0-8.7,7-15.7,15.7-15.7C408.3,342.2,415.3,349.2,415.3,357.8z M397.3,179.4c-7.6,0-13.8-6.2-13.8-13.8s6.2-13.8,13.8-13.8
	c7.6,0,13.8,6.2,13.8,13.8S404.9,179.4,397.3,179.4z"/>
</svg>
